<?xml version="1.0" standalone="no"?>
<!DOCTYPE svg PUBLIC "-//W3C//DTD SVG 20010904//EN"
 "http://www.w3.org/TR/2001/REC-SVG-20010904/DTD/svg10.dtd">
<svg version="1.0" xmlns="http://www.w3.org/2000/svg"
 width="225.000000pt" height="225.000000pt" viewBox="0 0 225.000000 225.000000"
 preserveAspectRatio="xMidYMid meet">
<metadata>
Created by potrace 1.14, written by Peter Selinger 2001-2017
</metadata>
<g transform="translate(0.000000,225.000000) scale(0.100000,-0.100000)"
fill="#000000" stroke="none">
<path d="M0 1843 l0 -407 58 57 c32 31 62 57 68 57 5 0 35 -26 67 -58 l57 -57
-125 -125 -125 -125 62 -62 63 -63 80 80 80 80 63 -63 62 -63 -80 -79 -80 -80
126 -126 125 -126 -63 -61 -63 -61 -187 187 -188 187 0 -468 0 -467 467 0 468
0 -220 220 -220 220 62 62 62 62 263 -78 c145 -43 272 -81 283 -84 11 -2 -60
76 -157 174 -98 99 -178 184 -178 189 0 6 26 36 58 68 l57 57 315 -315 315
-315 -61 -61 -62 -62 -258 77 c-143 43 -272 81 -289 87 -23 7 7 -27 125 -146
l155 -155 532 0 533 0 0 538 0 537 -155 155 -155 155 62 62 63 63 92 -92 93
-93 0 463 0 462 -587 0 -588 0 185 -185 185 -185 62 62 63 62 60 -59 c33 -33
59 -63 58 -67 -2 -4 -57 -62 -122 -128 l-120 -121 -311 311 -310 310 -413 0
-412 0 0 -407z m1015 -23 l310 -310 -245 -247 c-135 -136 -246 -249 -248 -252
-1 -3 -144 136 -317 309 l-315 315 247 247 c137 137 250 248 253 248 3 0 145
-139 315 -310z m863 -247 l-62 -63 -63 62 -63 62 62 63 62 63 63 -62 63 -62
-62 -63z m69 -940 l-247 -248 -315 315 -315 315 62 62 63 63 252 -252 253
-253 122 123 123 122 -248 248 c-136 136 -247 251 -247 257 0 5 26 35 57 67
l58 58 315 -315 315 -315 -248 -247z"/>
<path d="M572 1757 l-122 -122 188 -188 187 -187 123 123 122 122 -188 188
-187 187 -123 -123z"/>
</g>
</svg>
